<?xml version="1.0" encoding="UTF-8" standalone="no"?>
<svg
   xmlns:dc="http://purl.org/dc/elements/1.1/"
   xmlns:cc="http://creativecommons.org/ns#"
   xmlns:rdf="http://www.w3.org/1999/02/22-rdf-syntax-ns#"
   xmlns:svg="http://www.w3.org/2000/svg"
   xmlns="http://www.w3.org/2000/svg"
   xmlns:xlink="http://www.w3.org/1999/xlink"
   xmlns:sodipodi="http://sodipodi.sourceforge.net/DTD/sodipodi-0.dtd"
   xmlns:inkscape="http://www.inkscape.org/namespaces/inkscape"
   width="100"
   height="100"
   viewBox="0 0 26.458333 26.458334"
   version="1.1"
   id="svg8"
   inkscape:version="1.0.2 (1.0.2+r75+1)"
   sodipodi:docname="card_new_hourglass.svg">
  <defs
     id="defs2">
    <linearGradient
       inkscape:collect="always"
       id="linearGradient1751">
      <stop
         style="stop-color:#ffffff;stop-opacity:1;"
         offset="0"
         id="stop1747" />
      <stop
         style="stop-color:#ffffff;stop-opacity:0;"
         offset="1"
         id="stop1749" />
    </linearGradient>
    <linearGradient
       inkscape:collect="always"
       xlink:href="#linearGradient1751"
       id="linearGradient1755"
       x1="40.984547"
       y1="42.150276"
       x2="6.0674109"
       y2="5.0794926"
       gradientUnits="userSpaceOnUse" />
  </defs>
  <sodipodi:namedview
     id="base"
     pagecolor="#ffffff"
     bordercolor="#666666"
     borderopacity="1.0"
     inkscape:pageopacity="0.0"
     inkscape:pageshadow="2"
     inkscape:zoom="1.4"
     inkscape:cx="81.407134"
     inkscape:cy="114.86452"
     inkscape:document-units="mm"
     inkscape:current-layer="layer1"
     inkscape:document-rotation="0"
     showgrid="false"
     units="px"
     inkscape:snap-page="false"
     inkscape:window-width="1360"
     inkscape:window-height="719"
     inkscape:window-x="0"
     inkscape:window-y="25"
     inkscape:window-maximized="1"
     inkscape:object-nodes="false" />
  <metadata
     id="metadata5">
    <rdf:RDF>
      <cc:Work
         rdf:about="">
        <dc:format>image/svg+xml</dc:format>
        <dc:type
           rdf:resource="http://purl.org/dc/dcmitype/StillImage" />
        <dc:title></dc:title>
      </cc:Work>
    </rdf:RDF>
  </metadata>
  <g
     inkscape:label="Calque 1"
     inkscape:groupmode="layer"
     id="layer1">
    <rect
       style="fill:#ddc896;fill-opacity:1;stroke:#ffffff;stroke-width:0.264583;stroke-linecap:round;stroke-linejoin:round;stroke-dasharray:0.264583, 0.264583;paint-order:markers stroke fill"
       id="rect1686"
       width="26.458332"
       height="26.458332"
       x="6.357829e-07"
       y="-1.5566276e-05"
       ry="4.0580688" />
    <g
       id="_x33_6_hourglass"
       transform="matrix(0.04441484,0,0,0.04441484,1.8589452,1.8589674)">
      <path
         d="M 385.999,74.604 V 36.629 L 126.001,36.627 v 37.975 c 0,59.979 28.879,116.799 78.581,153.279 8.971,6.585 14.33,16.997 14.33,28.125 0,11.106 -5.326,21.518 -14.281,28.087 -50.767,37.242 -78.633,94.554 -78.633,153.304 v 37.976 l 259.998,0.002 V 437.4 c 0,-58.66 -27.788,-116.003 -78.636,-153.307 -8.953,-6.568 -14.275,-16.979 -14.275,-28.083 v -10e-4 c 0,-11.131 5.362,-21.543 14.335,-28.129 49.59,-36.401 78.579,-93.165 78.579,-153.276 z"
         fill="#d8ecfe"
         id="path2128" />
      <path
         d="M 307.421,227.878 C 357.011,191.479 385.999,134.715 386,74.603 V 36.628 l -259.998,-10e-4 217.479,10e-4 v 37.975 c 0,60.112 -28.989,116.876 -78.579,153.275 -8.973,6.586 -14.335,16.998 -14.335,28.129 v 10e-4 c 0,11.104 5.323,21.515 14.275,28.083 50.849,37.304 78.637,94.647 78.636,153.307 v 37.975 h 42.52 v -37.975 c 0,-58.66 -27.788,-116.003 -78.636,-153.307 -8.953,-6.568 -14.276,-16.979 -14.275,-28.083 v -10e-4 c -10e-4,-11.131 5.361,-21.543 14.334,-28.129 z"
         fill="#c4e2ff"
         id="path2130" />
      <path
         d="M 155.999,444.851 V 439.8 c 0,-25.113 12.988,-48.88 36.137,-67.931 18.029,-14.838 40.671,-22.653 63.861,-22.653 23.19,0 45.832,7.816 63.862,22.654 23.15,19.053 36.138,42.819 36.138,67.931 v 5.051 z"
         fill="#ffd15b"
         id="path2132" />
      <path
         d="M 119.001,36.627 H 393 c 9.941,0 18,-8.199 18,-18.313 C 411,8.2 402.941,0.001 393,0.001 H 119.001 c -9.942,0 -18.001,8.2 -18,18.315 10e-4,10.113 8.059,18.311 18,18.311 z"
         fill="#596c76"
         id="path2134" />
      <path
         d="M 119.001,512 H 393 c 9.941,0 18,-8.199 18,-18.313 0,-10.114 -8.059,-18.313 -18,-18.313 H 119.001 c -9.942,0 -18.001,8.2 -18,18.315 10e-4,10.113 8.059,18.311 18,18.311 z"
         fill="#596c76"
         id="path2136" />
      <g
         id="g2140">
        <path
           d="m 255.998,330.173 c -4.267,0 -7.726,-3.459 -7.726,-7.726 v -10.302 c 0,-4.268 3.459,-7.726 7.726,-7.726 4.267,0 7.726,3.459 7.726,7.726 v 10.302 c 0,4.267 -3.459,7.726 -7.726,7.726 z m 0,-40.177 c -4.267,0 -7.726,-3.459 -7.726,-7.726 v -10.302 c 0,-4.268 3.459,-7.726 7.726,-7.726 4.267,0 7.726,3.459 7.726,7.726 v 10.302 c 0,4.267 -3.459,7.726 -7.726,7.726 z m 0,-40.177 c -4.267,0 -7.726,-3.459 -7.726,-7.726 v -10.302 c 0,-4.268 3.459,-7.726 7.726,-7.726 4.267,0 7.726,3.459 7.726,7.726 v 10.302 c 0,4.267 -3.459,7.726 -7.726,7.726 z"
           fill="#feb137"
           id="path2138" />
      </g>
      <path
         d="m 157.742,97.956 c 4.958,33.021 20.345,63.479 43.98,87.534 14.38,14.636 33.94,22.783 54.28,22.783 20.34,0 39.899,-8.147 54.279,-22.782 23.634,-24.053 39.021,-54.512 43.979,-87.535 z"
         fill="#feb137"
         id="path2142" />
      <path
         d="m 392.999,0 h -52.564 c 9.941,0 18,8.199 18,18.313 0,10.114 -8.059,18.313 -18,18.313 h 52.564 c 9.941,0 18,-8.199 18,-18.313 C 410.999,8.199 402.94,0 392.999,0 Z"
         fill="#465a61"
         id="path2144" />
      <path
         d="m 392.999,475.373 h -52.564 c 9.941,0 18,8.199 18,18.313 0,10.114 -8.059,18.313 -18,18.313 h 52.564 c 9.941,0 18,-8.199 18,-18.313 0,-10.114 -8.059,-18.313 -18,-18.313 z"
         fill="#465a61"
         id="path2146" />
      <path
         d="m 337.161,389.308 c 4.172,15.664 6.317,31.825 6.317,48.091 v 7.453 h 12.52 V 439.8 c -10e-4,-17.926 -6.628,-35.163 -18.837,-50.492 z"
         fill="#ffc344"
         id="path2148" />
      <path
         d="m 342.001,97.957 c -4.414,35.001 -18.659,68.034 -40.985,95.544 3.271,-2.402 6.376,-5.069 9.264,-8.008 23.634,-24.053 39.021,-54.512 43.979,-87.535 h -12.258 z"
         fill="#f6ab31"
         id="path2150" />
    </g>
    <g
       id="g3810"
       transform="matrix(0.01784957,0,0,0.01784957,17.576905,0.77611596)">
      <path
         style="fill:#8dc640"
         d="m 405.493,412.764 c -69.689,56.889 -287.289,56.889 -355.556,0 -69.689,-56.889 -62.578,-300.089 0,-364.089 62.578,-64 292.978,-64 355.556,0 62.578,64 69.689,307.201 0,364.089 z"
         id="path3746" />
      <g
         style="opacity:0.2"
         id="g3750">
	<path
   style="fill:#ffffff"
   d="M 229.138,313.209 C 166.56,362.987 96.871,388.587 31.449,390.009 -16.907,307.52 -6.951,106.987 49.938,48.676 c 51.2,-52.622 211.911,-62.578 304.356,-29.867 22.755,93.867 -24.178,213.333 -125.156,294.4 z"
   id="path3748" />

</g>
      <path
         style="fill:#ffffff"
         d="m 362.827,227.876 c 0,14.222 -11.378,25.6 -25.6,25.6 h -85.333 v 85.333 c 0,14.222 -11.378,25.6 -25.6,25.6 -14.222,0 -25.6,-11.378 -25.6,-25.6 V 253.476 H 115.36 c -14.222,0 -25.6,-11.378 -25.6,-25.6 0,-14.222 11.378,-25.6 25.6,-25.6 h 85.333 v -85.333 c 0,-14.222 11.378,-25.6 25.6,-25.6 14.222,0 25.6,11.378 25.6,25.6 v 85.333 h 85.333 c 14.223,0 25.601,11.377 25.601,25.6 z"
         id="path3752" />
      <g
         id="g3754">
</g>
      <g
         id="g3756">
</g>
      <g
         id="g3758">
</g>
      <g
         id="g3760">
</g>
      <g
         id="g3762">
</g>
      <g
         id="g3764">
</g>
      <g
         id="g3766">
</g>
      <g
         id="g3768">
</g>
      <g
         id="g3770">
</g>
      <g
         id="g3772">
</g>
      <g
         id="g3774">
</g>
      <g
         id="g3776">
</g>
      <g
         id="g3778">
</g>
      <g
         id="g3780">
</g>
      <g
         id="g3782">
</g>
    </g>
  </g>
</svg>
