<?xml version="1.0" encoding="UTF-8" standalone="no"?>
<svg
   xmlns:dc="http://purl.org/dc/elements/1.1/"
   xmlns:cc="http://creativecommons.org/ns#"
   xmlns:rdf="http://www.w3.org/1999/02/22-rdf-syntax-ns#"
   xmlns:svg="http://www.w3.org/2000/svg"
   xmlns="http://www.w3.org/2000/svg"
   xmlns:xlink="http://www.w3.org/1999/xlink"
   xmlns:sodipodi="http://sodipodi.sourceforge.net/DTD/sodipodi-0.dtd"
   xmlns:inkscape="http://www.inkscape.org/namespaces/inkscape"
   width="100"
   height="100"
   viewBox="0 0 26.458333 26.458334"
   version="1.1"
   id="svg8"
   inkscape:version="1.0.2 (1.0.2+r75+1)"
   sodipodi:docname="card_restart_others.svg">
  <defs
     id="defs2">
    <linearGradient
       inkscape:collect="always"
       id="linearGradient1751">
      <stop
         style="stop-color:#ffffff;stop-opacity:1;"
         offset="0"
         id="stop1747" />
      <stop
         style="stop-color:#ffffff;stop-opacity:0;"
         offset="1"
         id="stop1749" />
    </linearGradient>
    <linearGradient
       inkscape:collect="always"
       xlink:href="#linearGradient1751"
       id="linearGradient1755"
       x1="40.984547"
       y1="42.150276"
       x2="6.0674109"
       y2="5.0794926"
       gradientUnits="userSpaceOnUse" />
  </defs>
  <sodipodi:namedview
     id="base"
     pagecolor="#ffffff"
     bordercolor="#666666"
     borderopacity="1.0"
     inkscape:pageopacity="0.0"
     inkscape:pageshadow="2"
     inkscape:zoom="1.4"
     inkscape:cx="82.932737"
     inkscape:cy="131.49363"
     inkscape:document-units="mm"
     inkscape:current-layer="layer1"
     inkscape:document-rotation="0"
     showgrid="false"
     units="px"
     inkscape:snap-page="false"
     inkscape:window-width="1360"
     inkscape:window-height="719"
     inkscape:window-x="0"
     inkscape:window-y="25"
     inkscape:window-maximized="1" />
  <metadata
     id="metadata5">
    <rdf:RDF>
      <cc:Work
         rdf:about="">
        <dc:format>image/svg+xml</dc:format>
        <dc:type
           rdf:resource="http://purl.org/dc/dcmitype/StillImage" />
        <dc:title></dc:title>
      </cc:Work>
    </rdf:RDF>
  </metadata>
  <g
     inkscape:label="Calque 1"
     inkscape:groupmode="layer"
     id="layer1">
    <rect
       style="fill:#ddc896;fill-opacity:1;stroke:#ffffff;stroke-width:0.264583;stroke-linecap:round;stroke-linejoin:round;stroke-dasharray:0.264583, 0.264583;paint-order:markers stroke fill"
       id="rect1686"
       width="26.458332"
       height="26.458332"
       x="6.357829e-07"
       y="-1.5566276e-05"
       ry="4.0580688" />
    <g
       id="g3023"
       transform="matrix(0.36139816,0,0,0.34434695,1.6644255,2.2100644)">
	<g
   id="g2977">
		<circle
   style="fill:#aecc2f"
   cx="32"
   cy="32"
   r="30"
   id="circle2975" />

	</g>

	<g
   id="g2981">
		<circle
   style="fill:#cee082"
   cx="32"
   cy="32"
   r="22"
   id="circle2979" />

	</g>

	<g
   id="g2985">
		<rect
   x="17"
   y="18"
   style="fill:#cccccc"
   width="30"
   height="28"
   id="rect2983" />

	</g>

	<g
   id="g2989">
		<rect
   x="17"
   y="18"
   style="fill:#e6e6e6"
   width="27"
   height="28"
   id="rect2987" />

	</g>

	<g
   id="g2993">
		<polygon
   style="fill:#f94a46"
   points="37,24 37,40 25,32 "
   id="polygon2991" />

	</g>

	<g
   id="g2997">
		<path
   d="m 37,41 c -0.194,0 -0.388,-0.056 -0.555,-0.168 l -12,-8 C 24.167,32.646 24,32.334 24,32 c 0,-0.334 0.167,-0.646 0.445,-0.832 l 12,-8 c 0.306,-0.204 0.702,-0.223 1.026,-0.05 C 37.797,23.292 38,23.631 38,24 v 16 c 0,0.369 -0.203,0.708 -0.528,0.882 C 37.324,40.961 37.162,41 37,41 Z M 26.803,32 36,38.131 V 25.869 Z"
   id="path2995" />

	</g>

	<g
   id="g3001">
		<path
   d="M 47,47 H 17 c -0.553,0 -1,-0.448 -1,-1 V 18 c 0,-0.552 0.447,-1 1,-1 h 30 c 0.553,0 1,0.448 1,1 v 28 c 0,0.552 -0.447,1 -1,1 z M 18,45 H 46 V 19 H 18 Z"
   id="path2999" />

	</g>

	<g
   id="g3005">
		<path
   d="M 32,63 C 14.906,63 1,49.093 1,32 1,14.907 14.906,1 32,1 49.094,1 63,14.907 63,32 63,49.093 49.094,63 32,63 Z M 32,3 C 16.01,3 3,16.009 3,32 3,47.991 16.01,61 32,61 47.99,61 61,47.991 61,32 61,16.009 47.99,3 32,3 Z"
   id="path3003" />

	</g>

	<g
   id="g3009">
		<path
   d="M 13.443,45.592 C 10.536,41.629 9,36.929 9,32 9,27.231 10.446,22.657 13.183,18.772 l 1.635,1.151 C 12.32,23.47 11,27.646 11,32 c 0,4.501 1.402,8.792 4.057,12.409 z"
   id="path3007" />

	</g>

	<g
   id="g3013">
		<path
   d="M 32,55 C 26.666,55 21.469,53.133 17.363,49.742 L 18.636,48.2 C 22.385,51.295 27.13,53 32,53 c 4.87,0 9.615,-1.705 13.363,-4.8 l 1.273,1.542 C 42.531,53.133 37.334,55 32,55 Z"
   id="path3011" />

	</g>

	<g
   id="g3017">
		<path
   d="M 50.557,45.592 48.944,44.409 C 51.598,40.792 53,36.501 53,32 53,27.499 51.598,23.208 48.943,19.591 l 1.613,-1.183 C 53.464,22.371 55,27.071 55,32 c 0,4.929 -1.536,9.629 -4.443,13.592 z"
   id="path3015" />

	</g>

	<g
   id="g3021">
		<path
   d="M 45.363,15.8 C 41.615,12.705 36.87,11 32,11 27.13,11 22.385,12.705 18.637,15.8 L 17.364,14.258 C 21.469,10.867 26.666,9 32,9 c 5.334,0 10.531,1.867 14.637,5.258 z"
   id="path3019" />

	</g>

</g>
  </g>
</svg>
