<?xml version="1.0" encoding="UTF-8" standalone="no"?>
<svg
   xmlns:dc="http://purl.org/dc/elements/1.1/"
   xmlns:cc="http://creativecommons.org/ns#"
   xmlns:rdf="http://www.w3.org/1999/02/22-rdf-syntax-ns#"
   xmlns:svg="http://www.w3.org/2000/svg"
   xmlns="http://www.w3.org/2000/svg"
   xmlns:xlink="http://www.w3.org/1999/xlink"
   xmlns:sodipodi="http://sodipodi.sourceforge.net/DTD/sodipodi-0.dtd"
   xmlns:inkscape="http://www.inkscape.org/namespaces/inkscape"
   width="100"
   height="100"
   viewBox="0 0 26.458333 26.458334"
   version="1.1"
   id="svg8"
   inkscape:version="1.0.2 (1.0.2+r75+1)"
   sodipodi:docname="card_speed_up.svg">
  <defs
     id="defs2">
    <linearGradient
       inkscape:collect="always"
       id="linearGradient1751">
      <stop
         style="stop-color:#ffffff;stop-opacity:1;"
         offset="0"
         id="stop1747" />
      <stop
         style="stop-color:#ffffff;stop-opacity:0;"
         offset="1"
         id="stop1749" />
    </linearGradient>
    <linearGradient
       inkscape:collect="always"
       xlink:href="#linearGradient1751"
       id="linearGradient1755"
       x1="40.984547"
       y1="42.150276"
       x2="6.0674109"
       y2="5.0794926"
       gradientUnits="userSpaceOnUse" />
  </defs>
  <sodipodi:namedview
     id="base"
     pagecolor="#ffffff"
     bordercolor="#666666"
     borderopacity="1.0"
     inkscape:pageopacity="0.0"
     inkscape:pageshadow="2"
     inkscape:zoom="1.979899"
     inkscape:cx="64.225186"
     inkscape:cy="55.422027"
     inkscape:document-units="mm"
     inkscape:current-layer="layer1"
     inkscape:document-rotation="0"
     showgrid="false"
     units="px"
     inkscape:snap-page="false"
     inkscape:window-width="1360"
     inkscape:window-height="719"
     inkscape:window-x="0"
     inkscape:window-y="25"
     inkscape:window-maximized="1" />
  <metadata
     id="metadata5">
    <rdf:RDF>
      <cc:Work
         rdf:about="">
        <dc:format>image/svg+xml</dc:format>
        <dc:type
           rdf:resource="http://purl.org/dc/dcmitype/StillImage" />
        <dc:title></dc:title>
      </cc:Work>
    </rdf:RDF>
  </metadata>
  <g
     inkscape:label="Calque 1"
     inkscape:groupmode="layer"
     id="layer1">
    <rect
       style="fill:#ddc896;fill-opacity:1;stroke:#ffffff;stroke-width:0.264583;stroke-linecap:round;stroke-linejoin:round;stroke-dasharray:0.264583, 0.264583;paint-order:markers stroke fill"
       id="rect1686"
       width="26.458332"
       height="26.458332"
       x="0"
       y="0"
       ry="4.0580688" />
    <g
       id="g1684"
       transform="matrix(0.04728001,0,0,0.04728001,1.1254875,1.1254841)">
      <circle
         style="fill:#02af8e"
         cx="251.381"
         cy="267"
         r="245"
         id="circle1549" />
      <circle
         style="fill:#ffffff"
         cx="250.411"
         cy="263.48999"
         r="198.62"
         id="circle1551" />
      <path
         style="fill:#445ea0"
         d="m 370.784,273.047 c -5.275,0 -9.553,-4.278 -9.553,-9.554 0,-23.982 -7.66,-46.206 -20.657,-64.362 l -0.001,0.001 C 328.058,181.651 310.592,167.946 290.244,160.08 l -0.001,10e-4 c -12.367,-4.781 -25.799,-7.409 -39.833,-7.409 -13.98,0 -27.355,2.608 -39.681,7.353 l -0.002,-0.005 c -20.38,7.844 -37.877,21.542 -50.418,39.025 0,0 0,0.001 0.001,0.001 -13.034,18.171 -20.717,40.428 -20.717,64.446 0,5.276 -4.278,9.554 -9.558,9.554 H 87.333 c -0.181,-3.163 -0.286,-6.347 -0.286,-9.554 0,90.223 73.141,163.362 163.363,163.362 87.015,0 158.128,-68.033 163.077,-153.808 z"
         id="path1553" />
      <g
         id="g1559">
	<path
   style="fill:#ff9518"
   d="m 160.31,199.046 -41.732,-32.02 c -0.001,-0.001 -0.002,-0.002 -0.003,-0.003 -19.816,27.034 -31.527,60.382 -31.527,96.47 0,3.207 0.105,6.392 0.286,9.554 h 42.702 c 5.279,0 9.558,-4.278 9.558,-9.554 -0.001,-24.018 7.683,-46.275 20.716,-64.447 0,0.001 0,0 0,0 z"
   id="path1555" />

	<path
   style="fill:#ff9518"
   d="m 382.309,167.109 c -0.001,0 -0.001,0.001 -0.001,0.001 l -41.733,32.022 c 12.997,18.156 20.657,40.38 20.657,64.362 0,5.276 4.277,9.554 9.553,9.554 h 42.703 c 0.182,-3.163 0.285,-6.347 0.285,-9.554 -0.001,-36.051 -11.686,-69.366 -31.464,-96.385 z"
   id="path1557" />

</g>
      <g
         id="g1565">
	<path
   style="fill:#ffaf10"
   d="m 192.593,110.671 c -10e-4,-0.002 -10e-4,-0.004 -0.002,-0.005 -29.819,11.291 -55.471,31.058 -74.014,56.361 l 41.732,32.02 c 12.541,-17.483 30.038,-31.182 50.418,-39.025 z"
   id="path1561" />

	<path
   style="fill:#ffaf10"
   d="m 308.381,110.724 c -10e-4,0.002 -0.002,0.004 -0.003,0.006 l -18.134,49.351 c 20.348,7.866 37.814,21.57 50.329,39.052 l 41.734,-32.022 c -18.519,-25.302 -44.139,-45.075 -73.926,-56.387 z"
   id="path1563" />

</g>
      <path
         style="fill:#ffd00d"
         d="m 308.378,110.73 c -18.018,-6.841 -37.553,-10.597 -57.967,-10.597 -20.357,0 -39.842,3.736 -57.817,10.539 l 18.137,49.354 c 12.326,-4.745 25.701,-7.353 39.681,-7.353 14.034,0 27.465,2.628 39.833,7.409 z"
         id="path1567" />
      <path
         style="fill:#d9eafc"
         d="m 71.636,263.493 c 0,-106.363 83.613,-193.198 188.696,-198.368 -3.287,-0.162 -6.594,-0.247 -9.921,-0.247 -109.692,0 -198.617,88.925 -198.617,198.615 0,109.692 88.925,198.615 198.617,198.615 3.327,0 6.634,-0.086 9.921,-0.247 C 155.249,456.691 71.636,369.858 71.636,263.493 Z"
         id="path1569" />
      <path
         style="fill:#293d7c"
         d="M 107.176,273.047 H 87.332 c 4.948,85.775 76.064,153.808 163.078,153.808 3.333,0 6.638,-0.112 9.921,-0.309 -82.44,-4.939 -148.397,-71.009 -153.155,-153.499 z"
         id="path1571" />
      <path
         style="fill:#ff9518"
         d="m 315.577,270.993 c -4.143,0 -7.5,-3.358 -7.5,-7.5 0,-31.798 -25.869,-57.669 -57.667,-57.669 -31.799,0 -57.669,25.87 -57.669,57.669 0,4.142 -3.358,7.5 -7.5,7.5 -4.142,0 -7.5,-3.358 -7.5,-7.5 0,-40.069 32.599,-72.669 72.669,-72.669 40.069,0 72.667,32.599 72.667,72.669 0,4.142 -3.357,7.5 -7.5,7.5 z"
         id="path1573" />
      <path
         style="fill:#91e0e8"
         d="m 226.419,358.851 c 0,1.65 -1.35,3 -3,3 h -30.221 c -1.65,0 -3,-1.35 -3,-3 v -30.218 c 0,-1.65 1.35,-3 3,-3 h 30.221 c 1.65,0 3,1.35 3,3 z"
         id="path1575" />
      <path
         id="SVGCleanerId_0"
         style="fill:#91e0e8"
         d="m 268.518,358.851 c 0,1.65 -1.35,3 -3,3 h -30.217 c -1.65,0 -3,-1.35 -3,-3 v -30.218 c 0,-1.65 1.35,-3 3,-3 h 30.217 c 1.65,0 3,1.35 3,3 z" />
      <path
         id="SVGCleanerId_1"
         style="fill:#ffffff"
         d="m 310.62,358.851 c 0,1.65 -1.35,3 -3,3 h -30.217 c -1.65,0 -3,-1.35 -3,-3 v -30.218 c 0,-1.65 1.35,-3 3,-3 h 30.217 c 1.65,0 3,1.35 3,3 z" />
      <path
         style="fill:#5dc1d8"
         d="m 226.419,358.851 c 0,1.65 -1.35,3 -3,3 h -30.221 c -1.65,0 -3,-1.35 -3,-3 v -30.218 c 0,-1.65 1.35,-3 3,-3 h 30.221 c 1.65,0 3,1.35 3,3 z"
         id="path1579" />
      <g
         id="g1582">
	<path
   id="SVGCleanerId_0_1_"
   style="fill:#91e0e8"
   d="m 268.518,358.851 c 0,1.65 -1.35,3 -3,3 h -30.217 c -1.65,0 -3,-1.35 -3,-3 v -30.218 c 0,-1.65 1.35,-3 3,-3 h 30.217 c 1.65,0 3,1.35 3,3 z" />

</g>
      <g
         id="g1585">
	<path
   id="SVGCleanerId_1_1_"
   style="fill:#ffffff"
   d="m 310.62,358.851 c 0,1.65 -1.35,3 -3,3 h -30.217 c -1.65,0 -3,-1.35 -3,-3 v -30.218 c 0,-1.65 1.35,-3 3,-3 h 30.217 c 1.65,0 3,1.35 3,3 z" />

</g>
      <path
         style="fill:#fe3745"
         d="m 226.123,274.934 c -6.308,-13.391 -0.546,-29.419 12.847,-35.728 0.736,-0.346 1.494,-0.661 2.318,-0.96 0.057,-0.02 0.11,-0.037 0.166,-0.05 l 132.179,-34.823 c 0.893,-0.235 1.818,0.2 2.213,1.034 0.391,0.832 0.135,1.829 -0.613,2.363 l -111.022,79.738 c -0.047,0.035 -0.094,0.066 -0.145,0.095 -0.758,0.446 -1.484,0.83 -2.219,1.178 -13.388,6.309 -29.414,0.547 -35.724,-12.847 z"
         id="path1587" />
      <g
         id="g1593">
	<path
   style="fill:#b7092b"
   d="m 238.97,247.049 c 0.736,-0.346 1.494,-0.661 2.318,-0.96 0.057,-0.02 0.11,-0.037 0.166,-0.05 l 124.931,-32.913 8.848,-6.355 c 0.748,-0.534 1.004,-1.531 0.613,-2.363 -0.395,-0.834 -1.32,-1.269 -2.213,-1.034 l -132.179,34.823 c -0.056,0.014 -0.109,0.031 -0.166,0.05 -0.824,0.299 -1.582,0.614 -2.318,0.96 -10.959,5.163 -16.804,16.833 -15.111,28.242 1.272,-8.597 6.676,-16.427 15.111,-20.4 z"
   id="path1589" />

	<circle
   style="fill:#b7092b"
   cx="250.411"
   cy="263.48999"
   r="13.472"
   id="circle1591" />

</g>
      <path
         style="fill:#ff9518"
         d="m 379.632,99.894 c -2.842,0 -5.147,-2.304 -5.147,-5.146 V 54.866 h -17.232 c -1.959,0 -3.748,-1.113 -4.615,-2.871 -0.867,-1.757 -0.66,-3.855 0.533,-5.409 L 387.4,2.012 C 388.372,0.744 389.882,0 391.479,0 v 0 c 1.6,0 3.107,0.744 4.082,2.012 l 34.227,44.574 c 1.193,1.554 1.4,3.651 0.533,5.409 -0.865,1.758 -2.654,2.871 -4.615,2.871 h -17.23 v 39.882 c 0,2.842 -2.303,5.146 -5.147,5.146 z"
         id="path1595" />
      <path
         style="fill:#ef8318"
         d="m 385.735,48.616 c 0,-2.761 -2.238,-5 -5,-5 h -25.284 l -2.28,2.97 c -1.193,1.554 -1.4,3.652 -0.533,5.409 0.867,1.758 2.656,2.871 4.615,2.871 h 17.232 v 39.882 c 0,2.842 2.305,5.146 5.147,5.146 h 6.103 z"
         id="path1597" />
      <path
         style="fill:#ff9518"
         d="m 454.395,176.369 c -2.842,0 -5.146,-2.304 -5.146,-5.146 V 131.34 h -17.23 c -1.961,0 -3.75,-1.113 -4.615,-2.871 -0.867,-1.757 -0.66,-3.855 0.533,-5.409 l 34.227,-44.573 c 0.975,-1.269 2.482,-2.012 4.082,-2.012 1.6,0 3.107,0.743 4.082,2.012 l 34.227,44.573 c 1.193,1.554 1.4,3.652 0.533,5.409 -0.865,1.758 -2.654,2.871 -4.615,2.871 h -17.232 v 39.883 c 0,2.842 -2.303,5.146 -5.147,5.146 z"
         id="path1599" />
      <path
         style="fill:#ef8318"
         d="m 460.501,125.09 c 0,-2.761 -2.238,-5 -5,-5 h -25.284 l -2.28,2.97 c -1.193,1.554 -1.4,3.652 -0.533,5.409 0.867,1.758 2.656,2.871 4.615,2.871 h 17.232 v 39.882 c 0,2.842 2.305,5.146 5.147,5.146 h 6.103 z"
         id="path1601" />
      <g
         id="g1603">
</g>
      <g
         id="g1605">
</g>
      <g
         id="g1607">
</g>
      <g
         id="g1609">
</g>
      <g
         id="g1611">
</g>
      <g
         id="g1613">
</g>
      <g
         id="g1615">
</g>
      <g
         id="g1617">
</g>
      <g
         id="g1619">
</g>
      <g
         id="g1621">
</g>
      <g
         id="g1623">
</g>
      <g
         id="g1625">
</g>
      <g
         id="g1627">
</g>
      <g
         id="g1629">
</g>
      <g
         id="g1631">
</g>
    </g>
  </g>
</svg>
