<?xml version="1.0" encoding="UTF-8" standalone="no"?>
<svg
   xmlns:dc="http://purl.org/dc/elements/1.1/"
   xmlns:cc="http://creativecommons.org/ns#"
   xmlns:rdf="http://www.w3.org/1999/02/22-rdf-syntax-ns#"
   xmlns:svg="http://www.w3.org/2000/svg"
   xmlns="http://www.w3.org/2000/svg"
   xmlns:xlink="http://www.w3.org/1999/xlink"
   xmlns:sodipodi="http://sodipodi.sourceforge.net/DTD/sodipodi-0.dtd"
   xmlns:inkscape="http://www.inkscape.org/namespaces/inkscape"
   width="100"
   height="100"
   viewBox="0 0 26.458333 26.458334"
   version="1.1"
   id="svg8"
   inkscape:version="1.0.2 (1.0.2+r75+1)"
   sodipodi:docname="card_points.svg">
  <defs
     id="defs2">
    <linearGradient
       inkscape:collect="always"
       id="linearGradient1751">
      <stop
         style="stop-color:#ffffff;stop-opacity:1;"
         offset="0"
         id="stop1747" />
      <stop
         style="stop-color:#ffffff;stop-opacity:0;"
         offset="1"
         id="stop1749" />
    </linearGradient>
    <linearGradient
       inkscape:collect="always"
       xlink:href="#linearGradient1751"
       id="linearGradient1755"
       x1="40.984547"
       y1="42.150276"
       x2="6.0674109"
       y2="5.0794926"
       gradientUnits="userSpaceOnUse" />
  </defs>
  <sodipodi:namedview
     id="base"
     pagecolor="#ffffff"
     bordercolor="#666666"
     borderopacity="1.0"
     inkscape:pageopacity="0.0"
     inkscape:pageshadow="2"
     inkscape:zoom="2.8"
     inkscape:cx="53.364741"
     inkscape:cy="75.48566"
     inkscape:document-units="mm"
     inkscape:current-layer="layer1"
     inkscape:document-rotation="0"
     showgrid="false"
     units="px"
     inkscape:snap-page="false"
     inkscape:window-width="1360"
     inkscape:window-height="719"
     inkscape:window-x="0"
     inkscape:window-y="25"
     inkscape:window-maximized="1" />
  <metadata
     id="metadata5">
    <rdf:RDF>
      <cc:Work
         rdf:about="">
        <dc:format>image/svg+xml</dc:format>
        <dc:type
           rdf:resource="http://purl.org/dc/dcmitype/StillImage" />
        <dc:title></dc:title>
      </cc:Work>
    </rdf:RDF>
  </metadata>
  <g
     inkscape:label="Calque 1"
     inkscape:groupmode="layer"
     id="layer1">
    <rect
       style="fill:#ddc896;fill-opacity:1;stroke:#ffffff;stroke-width:0.264583;stroke-linecap:round;stroke-linejoin:round;stroke-dasharray:0.264583, 0.264583;paint-order:markers stroke fill"
       id="rect1686"
       width="26.458332"
       height="26.458332"
       x="6.357829e-07"
       y="-1.5566276e-05"
       ry="4.0580688" />
    <g
       id="g1935"
       transform="matrix(0.04508663,0,0,0.04508663,1.6869905,1.6869905)">
      <path
         d="m 256,0 30,231 -30,281 C 114.507,512 0,397.503 0,256 0,114.507 114.497,0 256,0 Z"
         fill="#ff6666"
         id="path1923" />
      <path
         d="M 512,256 C 512,397.493 397.503,512 256,512 V 0 c 141.493,0 256,114.497 256,256 z"
         fill="#e62e6b"
         id="path1925" />
      <path
         d="M 256,78.22 276,217 256,394.38 160.78,415.43 c -8.654,1.907 -17.043,-4.05 -18.13,-12.81 L 130.2,301.47 83.59,218.01 c -4.123,-7.408 -1.306,-16.736 6.19,-20.63 l 88.49,-45.92 66.99,-68.71 c 2.82,-2.89 6.68,-4.53 10.71,-4.53 z"
         fill="#ffcc66"
         id="path1927" />
      <path
         d="m 428.44,217.95 -46.16,83.52 -12.94,101.22 c -1.128,8.73 -9.508,14.658 -18.14,12.74 l -94.96,-21.1 -0.24,0.05 V 78.22 c 4.07,-0.01 7.89,1.62 10.7,4.49 l 67.51,68.75 88.04,45.94 c 7.458,3.896 10.265,13.174 6.19,20.55 z"
         fill="#ffa64d"
         id="path1929" />
      <path
         d="M 256,229.01 263.667,214.667 256,199.01 C 255.82,199 255.65,199 255.47,199 h -31.74 c -8.3,0 -15,6.76 -15,15 v 114 c 0,8.28 6.72,15 15,15 8.28,0 15,-6.72 15,-15 v -34.6 c 6.2,-0.03 12.86,-0.06 16.74,-0.06 0.18,0 0.35,0 0.53,-0.01 L 261.667,277 256,263.33 c -0.17,0.01 -0.35,0.01 -0.53,0.01 -3.87,0 -10.45,0.03 -16.6,0.06 -0.09,-17.78 -0.03,-11.88 -0.1,-34.4 h 16.7 c 0.18,0 0.36,0 0.53,0.01 z"
         fill="#e62e6b"
         id="path1931" />
      <path
         d="m 256,199.01 v 30 c 9.42,0.28 17.27,8.03 17.27,17.16 0,9.14 -7.85,16.88 -17.27,17.16 v 30 c 26.12,-0.28 47.27,-21.33 47.27,-47.16 0,-25.83 -21.15,-46.88 -47.27,-47.16 z"
         fill="#b32453"
         id="path1933" />
    </g>
  </g>
</svg>
