<?xml version="1.0" encoding="UTF-8" standalone="no"?>
<svg
   xmlns:dc="http://purl.org/dc/elements/1.1/"
   xmlns:cc="http://creativecommons.org/ns#"
   xmlns:rdf="http://www.w3.org/1999/02/22-rdf-syntax-ns#"
   xmlns:svg="http://www.w3.org/2000/svg"
   xmlns="http://www.w3.org/2000/svg"
   xmlns:xlink="http://www.w3.org/1999/xlink"
   xmlns:sodipodi="http://sodipodi.sourceforge.net/DTD/sodipodi-0.dtd"
   xmlns:inkscape="http://www.inkscape.org/namespaces/inkscape"
   width="100"
   height="100"
   viewBox="0 0 26.458333 26.458334"
   version="1.1"
   id="svg8"
   inkscape:version="1.0.2 (1.0.2+r75+1)"
   sodipodi:docname="card_slow.svg">
  <defs
     id="defs2">
    <linearGradient
       inkscape:collect="always"
       id="linearGradient1751">
      <stop
         style="stop-color:#ffffff;stop-opacity:1;"
         offset="0"
         id="stop1747" />
      <stop
         style="stop-color:#ffffff;stop-opacity:0;"
         offset="1"
         id="stop1749" />
    </linearGradient>
    <linearGradient
       inkscape:collect="always"
       xlink:href="#linearGradient1751"
       id="linearGradient1755"
       x1="40.984547"
       y1="42.150276"
       x2="6.0674109"
       y2="5.0794926"
       gradientUnits="userSpaceOnUse" />
  </defs>
  <sodipodi:namedview
     id="base"
     pagecolor="#ffffff"
     bordercolor="#666666"
     borderopacity="1.0"
     inkscape:pageopacity="0.0"
     inkscape:pageshadow="2"
     inkscape:zoom="1.4131795"
     inkscape:cx="81.538866"
     inkscape:cy="132.43309"
     inkscape:document-units="mm"
     inkscape:current-layer="layer1"
     inkscape:document-rotation="0"
     showgrid="false"
     units="px"
     inkscape:snap-page="false"
     inkscape:window-width="1360"
     inkscape:window-height="719"
     inkscape:window-x="0"
     inkscape:window-y="25"
     inkscape:window-maximized="1"
     inkscape:object-nodes="false" />
  <metadata
     id="metadata5">
    <rdf:RDF>
      <cc:Work
         rdf:about="">
        <dc:format>image/svg+xml</dc:format>
        <dc:type
           rdf:resource="http://purl.org/dc/dcmitype/StillImage" />
        <dc:title></dc:title>
      </cc:Work>
    </rdf:RDF>
  </metadata>
  <g
     inkscape:label="Calque 1"
     inkscape:groupmode="layer"
     id="layer1">
    <rect
       style="fill:#ddc896;fill-opacity:1;stroke:#ffffff;stroke-width:0.264583;stroke-linecap:round;stroke-linejoin:round;stroke-dasharray:0.264583, 0.264583;paint-order:markers stroke fill"
       id="rect1686"
       width="26.458332"
       height="26.458332"
       x="6.357829e-07"
       y="-1.5566276e-05"
       ry="4.0580688" />
    <g
       id="g4586"
       transform="matrix(0.03955071,0,0,0.03955071,3.1042487,3.1042232)">
      <path
         style="fill:#f5d7b7"
         d="M 382.355,429.742 H 26.422 c -11.834,0 -20.764,-10.743 -18.6,-22.378 v 0 c 8.43,-45.332 47.984,-78.21 94.094,-78.21 h 280.44 v 100.588 z"
         id="path4483" />
      <path
         style="fill:#f2caa7"
         d="m 101.916,329.154 c -46.11,0 -85.664,32.878 -94.094,78.21 v 0 c -2.163,11.635 6.766,22.378 18.6,22.378 h 295.281 c -71.082,-11.285 -90.637,-57.97 -80.509,-100.588 z"
         id="path4485" />
      <path
         style="fill:#b38a82"
         d="m 343.323,230.922 c 0,46.185 -21.835,87.452 -56.092,114.72 -32.081,0 -39.969,33.949 -98.047,33.949 -85.129,0 -154.139,-66.561 -154.139,-148.668 0,-82.107 69.01,-148.669 154.139,-148.669 85.129,0 154.139,66.561 154.139,148.668 z"
         id="path4487" />
      <path
         style="fill:#f5d7b7"
         d="m 467.034,191.965 c 0.988,-1.801 2.866,-2.937 4.92,-2.937 h 0.032 c 17.956,0 32.511,-14.556 32.511,-32.511 0,-18.705 -15.797,-33.721 -34.778,-32.434 -15.703,1.065 -28.557,13.521 -30.086,29.186 -0.479,4.907 0.142,9.612 1.636,13.91 0.525,1.51 0.371,3.163 -0.437,4.541 -13.885,23.693 -20.884,48.55 -23.884,68.633 -0.648,4.339 -4.901,7.147 -9.151,6.061 -8.113,-2.073 -16.642,-3.18 -25.442,-3.18 -7.85,0 -15.482,0.883 -22.797,2.546 -3.475,0.79 -6.653,-2.161 -6.02,-5.669 2.564,-14.203 7.592,-31.368 16.793,-48.147 0.987,-1.801 2.865,-2.936 4.919,-2.936 h 0.033 c 17.955,0 32.511,-14.556 32.511,-32.511 0,-18.704 -15.794,-33.719 -34.773,-32.435 -15.704,1.063 -28.56,13.519 -30.09,29.185 -0.479,4.909 0.142,9.617 1.638,13.917 0.524,1.506 0.37,3.155 -0.436,4.531 -19.166,32.702 -25.215,67.621 -25.734,89.14 -0.077,3.19 -1.472,6.18 -3.828,8.332 -18.577,16.972 -30.143,40.85 -30.143,67.302 0,51.503 43.843,93.254 97.926,93.254 54.083,0 97.926,-41.751 97.926,-93.254 0,-25.751 -10.962,-49.063 -28.684,-65.938 -2.384,-2.271 -3.757,-5.399 -3.685,-8.691 0.336,-15.07 4.365,-42.983 19.123,-69.895 z"
         id="path4489" />
      <g
         id="g4495">
	<ellipse
   style="fill:#f27281"
   cx="333.61899"
   cy="302.44901"
   rx="20.719"
   ry="16.5"
   id="ellipse4491" />

	<ellipse
   style="fill:#f27281"
   cx="445.92899"
   cy="302.44901"
   rx="20.719"
   ry="16.5"
   id="ellipse4493" />

</g>
      <path
         style="opacity:0.1;enable-background:new"
         d="M 254.355,358.409 C 90.308,329.17 101.397,144 147.755,87.693 82.749,105.148 35.044,162.659 35.044,230.922 c 0,82.107 69.01,148.668 154.139,148.668 33.885,0.001 50.684,-11.554 65.172,-21.181 z"
         id="path4497" />
      <g
         style="opacity:0.1"
         id="g4513">
	<circle
   cx="228.679"
   cy="135.60899"
   r="7.2020001"
   id="circle4499" />

	<circle
   cx="280.42899"
   cy="152.569"
   r="7.2020001"
   id="circle4501" />

	<circle
   cx="252.119"
   cy="159.77901"
   r="7.2020001"
   id="circle4503" />

	<circle
   cx="114.399"
   cy="297.14899"
   r="7.2020001"
   id="circle4505" />

	<circle
   cx="73.588997"
   cy="188.02901"
   r="7.2020001"
   id="circle4507" />

	<circle
   cx="137.49899"
   cy="321.94901"
   r="7.2020001"
   id="circle4509" />

	<circle
   cx="157.019"
   cy="292.60901"
   r="7.2020001"
   id="circle4511" />

</g>
      <path
         d="m 511.997,156.517 c 0,-11.041 -4.628,-21.697 -12.697,-29.238 -8.184,-7.648 -18.882,-11.443 -30.087,-10.679 -19.247,1.305 -35.172,16.756 -37.044,35.939 -0.541,5.538 0.037,10.986 1.717,16.207 -15.342,26.492 -21.703,52.828 -24.337,70.374 -15.507,-3.946 -32.125,-4.444 -47.902,-1.437 2.265,-10.987 6.582,-25.991 14.749,-41.17 21.55,-0.591 38.898,-18.305 38.898,-39.996 0,-11.04 -4.628,-21.697 -12.696,-29.237 -8.182,-7.647 -18.863,-11.438 -30.082,-10.68 -19.248,1.302 -35.176,16.752 -37.049,35.938 -0.475,4.867 -0.085,9.664 1.156,14.301 -5.043,-10.823 -11.356,-21.068 -18.887,-30.6 -2.568,-3.25 -7.286,-3.804 -10.534,-1.235 -3.25,2.568 -3.804,7.285 -1.235,10.535 9.757,12.349 17.26,26.006 22.332,40.631 -15.131,33.875 -17.161,64.722 -17.397,74.503 -0.027,1.126 -0.52,2.183 -1.389,2.976 -21.012,19.196 -32.584,45.064 -32.584,72.839 0,0.901 0.016,1.807 0.041,2.714 -10.615,2.233 -18.86,7.709 -27.493,13.449 -13.707,9.112 -29.242,19.44 -60.293,19.44 -8.803,0 -17.427,-0.752 -25.808,-2.19 59.688,-5.19 106.676,-55.424 106.676,-116.435 0,-52.388 -42.621,-95.008 -95.009,-95.008 -42.737,0 -77.507,34.769 -77.507,77.507 0,4.142 3.357,7.5 7.5,7.5 4.143,0 7.5,-3.358 7.5,-7.5 0,-34.466 28.04,-62.507 62.507,-62.507 44.117,0 80.009,35.892 80.009,80.008 0,56.18 -45.706,101.886 -101.886,101.886 -17.165,0 -33.817,-3.313 -49.515,-9.833 -36.982,-25.654 -61.107,-67.462 -61.107,-114.596 0,-77.84 65.782,-141.168 146.64,-141.168 34.007,0 67.148,11.461 93.32,32.273 3.243,2.579 7.961,2.041 10.538,-1.202 2.578,-3.242 2.04,-7.96 -1.202,-10.538 -28.815,-22.914 -65.273,-35.533 -102.656,-35.533 -89.128,0 -161.64,70.057 -161.64,156.168 0,37.149 13.504,71.303 36.007,98.141 -32.4,13.042 -56.636,42.155 -63.103,76.93 -1.439,7.745 0.623,15.66 5.658,21.718 5.034,6.057 12.439,9.531 20.316,9.531 h 23.424 c 4.143,0 7.5,-3.358 7.5,-7.5 0,-4.142 -3.357,-7.5 -7.5,-7.5 H 26.422 c -3.404,0 -6.605,-1.501 -8.781,-4.12 -2.177,-2.618 -3.068,-6.04 -2.445,-9.387 5.886,-31.659 29.004,-57.824 59.431,-67.748 6.206,6.029 12.919,11.568 20.067,16.561 0.498,0.458 1.064,0.852 1.694,1.169 26.281,17.867 58.291,28.373 92.797,28.373 35.582,0 53.888,-12.17 68.597,-21.948 9.578,-6.367 17.143,-11.397 27.52,-11.944 0.065,-0.003 0.127,-0.015 0.191,-0.02 0.061,-0.005 0.121,-0.003 0.182,-0.01 0.063,-0.007 0.122,-0.02 0.184,-0.029 0.136,-0.017 0.271,-0.038 0.404,-0.062 0.115,-0.021 0.228,-0.044 0.341,-0.07 0.132,-0.031 0.262,-0.064 0.391,-0.102 0.112,-0.032 0.222,-0.067 0.331,-0.104 0.123,-0.042 0.244,-0.087 0.364,-0.135 0.111,-0.044 0.22,-0.091 0.328,-0.14 0.112,-0.051 0.223,-0.105 0.332,-0.162 0.108,-0.056 0.215,-0.114 0.32,-0.176 0.104,-0.06 0.205,-0.123 0.305,-0.188 0.104,-0.067 0.206,-0.136 0.305,-0.208 0.095,-0.069 0.188,-0.139 0.28,-0.212 0.097,-0.077 0.191,-0.155 0.284,-0.237 0.089,-0.078 0.175,-0.158 0.26,-0.24 0.087,-0.084 0.172,-0.17 0.255,-0.258 0.082,-0.087 0.162,-0.177 0.24,-0.268 0.077,-0.09 0.152,-0.182 0.225,-0.276 0.075,-0.097 0.147,-0.195 0.218,-0.295 0.067,-0.096 0.132,-0.192 0.195,-0.291 0.066,-0.105 0.13,-0.211 0.191,-0.319 0.057,-0.101 0.113,-0.204 0.165,-0.308 0.056,-0.111 0.109,-0.223 0.16,-0.336 0.048,-0.108 0.094,-0.218 0.137,-0.329 0.044,-0.113 0.085,-0.228 0.124,-0.344 0.039,-0.117 0.075,-0.235 0.109,-0.355 0.032,-0.114 0.061,-0.228 0.087,-0.344 0.029,-0.127 0.055,-0.254 0.077,-0.383 0.02,-0.112 0.036,-0.225 0.051,-0.339 0.017,-0.136 0.031,-0.272 0.041,-0.41 0.008,-0.112 0.014,-0.223 0.017,-0.336 0.004,-0.141 0.003,-0.282 -0.001,-0.424 -0.002,-0.06 0.003,-0.118 0,-0.178 -0.003,-0.059 -0.013,-0.115 -0.018,-0.173 -0.005,-0.067 -0.004,-0.133 -0.01,-0.201 -0.29,-2.815 -0.438,-5.659 -0.438,-8.453 0,-23.51 9.838,-45.445 27.7,-61.764 3.858,-3.523 6.144,-8.513 6.269,-13.69 0.223,-9.236 2.18,-38.862 17.129,-71.039 0.01,-0.02 0.018,-0.041 0.028,-0.062 2.219,-4.773 4.719,-9.6 7.548,-14.426 1.916,-3.268 2.299,-7.201 1.05,-10.788 -1.193,-3.432 -1.616,-7.041 -1.256,-10.725 1.169,-11.974 11.113,-21.617 23.132,-22.43 7.023,-0.473 13.714,1.895 18.827,6.673 5.119,4.784 7.939,11.275 7.939,18.278 0,13.791 -11.22,25.011 -25.043,25.011 -4.779,0 -9.184,2.616 -11.496,6.83 -10.466,19.086 -15.347,37.954 -17.598,50.421 -0.741,4.108 0.616,8.282 3.632,11.165 3.042,2.907 7.311,4.086 11.432,3.149 14.603,-3.32 30.244,-3.112 44.719,0.587 4.087,1.044 8.437,0.307 11.942,-2.02 3.499,-2.324 5.862,-6.041 6.484,-10.199 2.453,-16.417 8.424,-41.184 22.938,-65.95 1.915,-3.269 2.298,-7.203 1.05,-10.796 -1.192,-3.431 -1.615,-7.036 -1.255,-10.718 1.168,-11.974 11.111,-21.617 23.128,-22.432 7.035,-0.476 13.718,1.893 18.831,6.673 5.12,4.784 7.94,11.276 7.94,18.279 0,13.791 -11.22,25.011 -25.044,25.011 -4.779,0 -9.184,2.617 -11.496,6.831 -17.81,32.478 -19.844,64.341 -20.043,73.335 -0.117,5.33 2.073,10.537 6.011,14.287 16.996,16.185 26.357,37.673 26.357,60.507 0,47.285 -40.565,85.754 -90.427,85.754 H 85.792 c -4.143,0 -7.5,3.358 -7.5,7.5 0,4.142 3.357,7.5 7.5,7.5 h 296.563 c 58.133,0 105.427,-45.198 105.427,-100.754 0,-26.98 -11.014,-52.326 -31.012,-71.369 -0.889,-0.846 -1.384,-1.975 -1.359,-3.094 0.179,-8.046 1.986,-36.349 17.688,-65.512 21.55,-0.586 38.898,-18.3 38.898,-39.99 z M 389.772,309.946 c 6.621,0 12.917,-2.867 17.274,-7.866 2.722,-3.122 2.397,-7.86 -0.726,-10.582 -3.122,-2.722 -7.861,-2.397 -10.581,0.726 -1.508,1.73 -3.684,2.722 -5.968,2.722 -2.284,0 -4.46,-0.992 -5.968,-2.722 -2.72,-3.122 -7.459,-3.448 -10.581,-0.726 -3.123,2.722 -3.447,7.46 -0.726,10.582 4.359,4.999 10.655,7.866 17.276,7.866 z M 477.457,167.92 c 4.143,0 7.5,-3.358 7.5,-7.5 v -7.847 c 0,-4.142 -3.357,-7.5 -7.5,-7.5 -4.143,0 -7.5,3.358 -7.5,7.5 v 7.847 c 0,4.142 3.358,7.5 7.5,7.5 z m -96.702,0 c 4.143,0 7.5,-3.358 7.5,-7.5 v -7.847 c 0,-4.142 -3.357,-7.5 -7.5,-7.5 -4.143,0 -7.5,3.358 -7.5,7.5 v 7.847 c 0,4.142 3.357,7.5 7.5,7.5 z"
         id="path4515" />
      <g
         id="g4517">
</g>
      <g
         id="g4519">
</g>
      <g
         id="g4521">
</g>
      <g
         id="g4523">
</g>
      <g
         id="g4525">
</g>
      <g
         id="g4527">
</g>
      <g
         id="g4529">
</g>
      <g
         id="g4531">
</g>
      <g
         id="g4533">
</g>
      <g
         id="g4535">
</g>
      <g
         id="g4537">
</g>
      <g
         id="g4539">
</g>
      <g
         id="g4541">
</g>
      <g
         id="g4543">
</g>
      <g
         id="g4545">
</g>
    </g>
  </g>
</svg>
